<svg width="50" height="145" viewBox="0 0 50 145" fill="none" xmlns="http://www.w3.org/2000/svg">
<path d="M49.3914 85.3484C48.7483 85.1492 38.4736 81.5165 38.4277 81.4782C38.42 81.4705 38.4353 81.3632 38.4736 81.2483C38.5196 81.118 38.5196 80.8727 38.4736 80.6275C38.3894 80.137 38.4583 79.9224 38.8488 79.4932C39.2469 79.0564 39.4 78.6426 39.4842 77.7919C39.5761 76.9565 39.6986 76.5886 40.2958 75.3548C40.7705 74.3738 41.3141 73.6917 41.4978 73.845C41.5591 73.891 41.6356 73.914 41.6586 73.891C41.6892 73.8603 41.8194 73.8833 41.9572 73.9446C42.095 73.9983 42.2635 74.0366 42.3324 74.0289C42.4089 74.0136 42.4778 74.0749 42.5085 74.1899C42.5391 74.3201 42.6539 74.4121 42.8989 74.5117C43.32 74.6727 43.4731 74.5884 43.4731 74.1975C43.4731 73.9906 43.5191 73.9216 43.6952 73.8297C43.8713 73.7377 43.9555 73.5844 44.1469 73.0403C44.4378 72.2126 44.8436 71.3236 44.8513 71.5075C44.8589 71.7911 44.9891 71.6148 45.1499 71.1167C45.2341 70.8331 45.3106 70.5649 45.3106 70.5189C45.3106 70.4806 45.5097 69.9441 45.7547 69.3386C46.0456 68.6029 46.2524 68.2044 46.3442 68.1584C46.4285 68.1201 46.5892 67.9132 46.6964 67.6986C46.8036 67.484 47.0027 67.1008 47.1405 66.8479C47.5846 66.0049 47.8678 63.882 47.8602 61.3299C47.8602 59.7129 47.8372 59.4216 47.6994 58.9005C47.4085 57.8275 47.1635 57.4827 45.8696 56.3024C45.6552 56.1032 45.28 55.674 45.0274 55.3445C44.3842 54.5014 43.9019 54.0799 43.2358 53.7657C42.0414 53.1986 41.115 52.9533 39.645 52.8307C38.4353 52.7234 38.1367 52.6851 37.9147 52.5931C37.7846 52.5395 37.4247 52.4399 37.1108 52.3709C35.8552 52.0797 35.3652 51.6581 34.6914 50.271C34.4617 49.7958 34.1478 49.244 33.9947 49.0448C33.765 48.7459 33.6885 48.5466 33.543 47.8416C33.0836 45.6037 32.808 45.0672 30.4269 41.7105C30.136 41.2966 29.7991 40.7218 29.6766 40.4153C29.401 39.7409 29.0335 39.35 28.4133 39.0664C28.1453 38.9438 27.931 38.8365 27.931 38.8212C27.9233 38.8059 27.8927 38.3231 27.8621 37.7406C27.8085 36.9666 27.7625 36.637 27.663 36.4914C27.5941 36.3841 27.5022 36.3228 27.4716 36.3534C27.4333 36.3918 27.2572 36.6983 27.0811 37.0355C26.66 37.8479 26.66 37.8556 26.2925 37.8249L25.9863 37.8019L25.4963 36.6753C25.2206 36.0469 24.9756 35.5411 24.945 35.5411C24.9144 35.5411 24.8149 35.7403 24.723 35.9856C24.5775 36.3611 24.5546 36.5757 24.5699 37.3344C24.5775 37.8249 24.5699 38.2388 24.5546 38.2541C24.5392 38.2617 24.3019 38.4303 24.0263 38.6219C23.0846 39.281 22.763 39.6336 22.5027 40.2467C22.3725 40.5609 22.2653 40.8675 22.2653 40.9211C22.2577 41.0974 21.9361 41.4039 21.1858 41.9404C20.4202 42.4922 19.846 42.952 19.2641 43.4962C18.7741 43.9636 18.3989 44.868 18.4602 45.4581C18.5061 45.9409 18.8124 46.577 19.0956 46.7993C19.601 47.1978 20.2747 47.1212 20.7953 46.6C21.1016 46.3011 21.316 46.2628 23.9497 46.1478C24.5622 46.1172 25.1288 46.0865 25.213 46.0865C25.3049 46.0789 25.3967 46.1555 25.4503 46.2705C25.6111 46.6 25.726 48.4087 25.6953 49.8495C25.6647 51.1447 25.6494 51.2443 25.4274 51.8344C25.1824 52.4858 24.7153 53.3442 24.2866 53.942C23.7736 54.647 23.6894 54.9383 23.6894 56.0419C23.6817 56.9462 23.7047 57.0995 23.9038 57.7126L24.1335 58.387L23.8808 59.3986C23.6588 60.303 23.6358 60.5482 23.6128 61.7514C23.5975 62.4872 23.5592 63.2152 23.5286 63.3608C23.3831 64.1042 23.2224 64.6484 22.8396 65.6983C22.6099 66.3344 22.3802 67.0548 22.3342 67.3077C22.1888 68.1278 21.9514 68.8175 21.4155 69.9364C20.5503 71.7604 20.2058 72.1896 19.1952 72.6954C19.0038 72.795 18.5291 73.1093 18.1386 73.4005C17.7481 73.6917 17.4036 73.9523 17.3653 73.9753C17.3117 74.0059 2.43564 68.7792 1.37908 68.35L0.980957 68.1891L0.980957 72.5498L0.980957 76.9029L1.31018 76.9948C1.63174 77.0868 25.19 85.517 25.2436 85.5553C25.2513 85.563 24.7536 86.2604 24.1335 87.0958C23.5056 87.9311 22.8625 88.8738 22.7017 89.1957C22.5027 89.5942 22.3342 89.8164 22.1658 89.9161C22.028 89.9927 21.8289 90.1383 21.7064 90.2303C21.5533 90.3606 21.4385 90.3912 21.2471 90.3682C21.0403 90.3299 20.9102 90.3912 20.3589 90.7898C19.6546 91.3032 19.1952 91.4872 18.9885 91.3569C18.9119 91.3186 18.8124 91.15 18.7588 90.9814C18.6286 90.6058 18.6286 90.5982 18.4066 90.7514C18.1003 90.9507 18.0314 90.9124 18.0927 90.5598L18.1463 90.2456L17.8936 90.2993C17.7481 90.3299 17.5261 90.4219 17.3883 90.4985C17.1663 90.6365 17.0361 90.7668 16.5614 91.3416L16.4083 91.5255L16.3547 90.9584C16.3241 90.6441 16.2858 90.3836 16.2705 90.3682C16.2628 90.3606 16.0178 90.4985 15.7269 90.6901C15.0378 91.1346 14.8235 91.15 15.1527 90.7361C15.2369 90.6212 15.2752 90.5215 15.2292 90.5062C15.0914 90.4602 14.2952 90.8894 13.8205 91.2726C13.5066 91.5255 13.2922 91.6404 13.1927 91.6175C13.1085 91.5945 12.8405 91.5255 12.5878 91.4565C12.2892 91.3799 12.0978 91.3645 12.006 91.4105C11.8528 91.4948 11.6231 92.016 11.6231 92.2919C11.6231 92.5448 11.5313 92.5831 10.9341 92.5678C10.2374 92.5524 10.0613 92.6444 9.87752 93.1272C9.75502 93.4414 9.69377 93.5181 9.5483 93.5257C9.2344 93.5334 9.18846 93.5487 8.95111 93.7557L8.71377 93.9549V93.771C8.71377 93.1272 9.8469 90.8664 10.8192 89.5329C11.248 88.9504 11.1255 88.9734 10.4671 89.6095C8.29268 91.7094 7.80268 92.3532 7.36627 93.702C7.19783 94.2002 7.05236 94.545 6.99877 94.5297C6.87627 94.4914 6.8533 93.748 6.95283 93.2115C7.11361 92.3685 7.44283 91.8474 8.4458 90.8051C9.21143 90.008 9.32627 89.8624 9.14252 89.9084C8.40752 90.0847 7.38924 91.0197 6.86861 91.9853C6.56236 92.5524 6.2408 93.679 6.20252 94.3075C6.13361 95.6103 6.70018 97.3577 7.4658 98.1854C7.78736 98.5379 8.75971 99.243 9.24971 99.4959C9.69377 99.7181 11.0413 100.193 11.4088 100.255C11.8528 100.331 12.9477 100.163 13.6291 99.9174C14.41 99.6338 15.2752 99.1587 16.5921 98.308C17.1663 97.9401 17.7635 97.6029 17.9242 97.5569C18.3224 97.4496 18.8047 97.5799 19.5474 98.0091C20.581 98.5916 21.1016 99.1663 21.2317 99.8484C21.3006 100.201 21.071 101.803 20.6499 103.926C20.4278 105.068 20.5044 106.125 20.8642 106.8C20.9714 106.999 21.293 107.405 21.5916 107.712C22.2347 108.386 22.2577 108.562 21.7294 108.693C21.1552 108.838 20.9255 108.999 20.8336 109.306C20.7494 109.582 20.7494 109.589 21.0097 109.742C21.2088 109.857 21.27 109.949 21.27 110.11C21.27 110.44 21.3925 110.455 21.6222 110.149C21.9744 109.681 22.1581 109.842 22.0663 110.547C22.0433 110.769 22.0356 110.953 22.0663 110.953C22.0892 110.953 22.2347 110.708 22.3802 110.417C22.5333 110.118 22.6864 109.896 22.7171 109.919C22.7553 109.942 22.8242 110.133 22.8778 110.348C22.985 110.785 23.031 110.769 23.2224 110.241C23.2989 110.041 23.3908 109.857 23.4291 109.834C23.4674 109.811 23.5669 109.965 23.6588 110.179C23.743 110.394 23.8425 110.57 23.8731 110.57C23.9038 110.57 23.9727 110.425 24.0263 110.248C24.0799 110.064 24.1335 109.865 24.1564 109.804C24.1794 109.719 24.233 109.742 24.3708 109.911L24.5546 110.133L24.6158 109.873C24.6617 109.704 24.7383 109.604 24.8378 109.582C25.0675 109.543 25.2206 109.367 25.4044 108.945C25.5346 108.639 25.5499 108.516 25.4886 108.34C25.4197 108.133 25.4274 108.11 25.7566 107.918C25.9403 107.811 26.0935 107.689 26.0935 107.658C26.0935 107.597 25.8025 107.489 25.3891 107.397C25.0752 107.328 25.1211 107.229 25.5652 107.006C25.8408 106.861 25.9786 106.731 26.0628 106.547C26.2313 106.148 26.2006 106.071 25.7796 105.765L25.3891 105.489L25.6417 105.251C25.7872 105.113 26.3538 104.615 26.8974 104.14C29.5847 101.78 29.5311 101.841 30.0747 100.339C30.4192 99.3809 30.4728 99.1587 30.4269 98.8675C30.3733 98.4766 30.0977 97.7715 29.3703 96.2004C29.0947 95.6103 28.7808 94.8899 28.666 94.591C28.2985 93.633 28.0381 93.1426 27.5099 92.4528C27.0046 91.7861 26.5835 91.035 26.3997 90.4525C26.2236 89.8931 26.0169 89.5712 25.7106 89.3719C25.5422 89.257 25.4044 89.1267 25.4044 89.0807C25.4044 88.8278 26.5605 86.9118 26.9739 86.4827C27.0964 86.3601 27.2342 86.2757 27.3108 86.2987C27.5941 86.3754 48.3196 93.8246 48.9474 94.0699C49.3302 94.2232 49.713 94.3994 49.8125 94.4607L49.981 94.568L49.981 90.054V85.54L49.3914 85.3484ZM40.5944 69.147C40.5178 69.8751 40.2575 70.7948 39.9896 71.3083C39.8058 71.6761 39.7139 71.9673 39.691 72.2892C39.668 72.5421 39.6297 73.0096 39.6067 73.3238C39.5761 73.6381 39.5072 74.1286 39.4536 74.4121C39.2239 75.508 38.4506 77.5849 38.1521 77.9222C38.0985 77.9835 37.9606 78.267 37.8458 78.5429C37.708 78.8878 37.463 79.271 37.1031 79.6925C36.8046 80.045 36.4983 80.4206 36.4141 80.5279L36.2686 80.7195L35.526 80.4589C33.8875 79.8841 33.9641 79.9224 34.0942 79.7385C34.1555 79.6465 34.2091 79.4626 34.2091 79.317C34.2091 78.9414 34.4005 78.5583 34.6455 78.4356C34.7603 78.3743 35.0742 78.2747 35.3346 78.2287C35.7939 78.1367 35.8169 78.1214 35.97 77.7919C36.0542 77.6079 36.2303 77.1558 36.3452 76.7879C36.4677 76.42 36.6514 75.9679 36.7586 75.7763C36.8658 75.5847 37.1261 75.0559 37.3405 74.5884C37.5472 74.1286 37.9147 73.4005 38.1444 72.979C38.3817 72.5575 38.7263 71.8217 38.9253 71.3312C39.2316 70.5649 39.2699 70.4039 39.2316 70.0667C39.2086 69.8598 39.1627 69.2697 39.1397 68.7639C39.0785 67.6296 39.1856 66.9322 39.5302 66.2041C39.7905 65.66 40.3494 65.0162 40.5102 65.0699C40.5638 65.0852 40.625 65.2691 40.6556 65.4761C40.7092 65.8746 40.6633 68.4956 40.5944 69.147ZM36.3911 72.5575C36.2686 73.2166 36.0542 73.7454 35.1661 75.6C34.6072 76.7726 34.2856 77.1558 33.4664 77.6539C33.1602 77.8455 32.8846 77.9988 32.8616 77.9988C32.785 77.9988 32.1036 78.4893 31.8356 78.7422C31.6902 78.8801 31.5371 78.9951 31.4911 78.9951C31.4528 78.9951 29.8221 78.4356 27.885 77.7536L24.3478 76.5043L24.2942 75.9142C24.2406 75.2398 24.3325 74.9792 24.723 74.6957C25.0446 74.4658 25.2896 73.914 25.481 72.9407C25.6647 72.0363 25.971 70.9481 26.1471 70.6032C26.216 70.4806 26.3767 70.2353 26.5146 70.0667C26.6677 69.8751 26.8361 69.5073 26.9739 69.0704C27.2113 68.281 28.3444 65.3534 28.5435 65.0086C28.62 64.886 28.8344 64.4031 29.0335 63.9356C29.4775 62.8704 29.646 62.5945 29.845 62.5945C29.9292 62.5945 30.4422 62.7631 30.9781 62.97C33.03 63.7594 33.6502 63.928 35.2044 64.1196C35.5642 64.1655 35.9394 64.1885 36.0389 64.1809C36.3069 64.1579 36.3375 64.3648 36.3528 66.2578C36.3605 67.3231 36.4064 68.1124 36.4677 68.4573C36.6131 69.17 36.5596 71.6455 36.3911 72.5575ZM26.6677 63.6291C26.3155 65.2002 26.0322 66.1658 25.6647 67.0165C25.2053 68.0971 25.0981 68.5416 25.0981 69.3616C25.0981 70.3809 24.6694 71.7757 24.0263 72.8334C23.8502 73.1093 23.6128 73.5538 23.4827 73.822C23.2913 74.2282 23.1688 74.3738 22.7783 74.6497C22.518 74.8413 22.1811 75.1172 22.0433 75.2705C21.8978 75.4237 21.7447 75.5464 21.7141 75.5464C21.6758 75.5464 21.293 75.4237 20.8489 75.2705L20.0527 74.9946L20.2517 74.688C20.3742 74.5117 20.4814 74.2129 20.5121 73.9599C20.581 73.4465 20.803 73.1782 21.4231 72.864C21.9667 72.5881 22.005 72.5191 23.6128 68.5339C24.3096 66.8096 25.0139 65.1159 25.1671 64.7787C25.3278 64.4414 25.6724 63.6981 25.9327 63.1233C26.4533 61.989 26.6983 61.6135 26.8591 61.7131C26.9969 61.7974 26.928 62.4872 26.6677 63.6291ZM25.9939 86.6206C25.7719 86.9195 25.3585 87.4943 25.0675 87.9081C24.7842 88.3143 24.5163 88.6515 24.4703 88.6515C24.1717 88.6515 24.8302 87.3793 25.6724 86.3217C26.0092 85.9002 26.0858 85.8466 26.2313 85.9002C26.3231 85.9385 26.3997 85.9922 26.3997 86.0228C26.3997 86.0535 26.216 86.3294 25.9939 86.6206Z" fill="white"/>
<path d="M36.5365 17.4544L28.5587 0.019165L25.6264 0.019165L22.7017 0.019165L14.6397 17.3778L6.57764 34.7364L8.62186 34.79C9.74732 34.8284 11.179 34.8437 11.8069 34.8284L12.9553 34.813L19.2334 21.4626C22.694 14.113 25.5422 8.10452 25.5651 8.10452C25.5881 8.10452 28.4209 14.0977 31.8586 21.4166C35.3039 28.7433 38.1444 34.7824 38.175 34.836C38.2286 34.905 38.9176 34.928 41.3753 34.9127L44.5067 34.8897L36.5365 17.4544Z" fill="white"/>
<path d="M41.3292 110.264H38.2667L38.1595 110.44C38.0983 110.532 36.2685 114.402 34.0864 119.039C31.912 123.675 29.1252 129.607 27.9002 132.221C26.6675 134.834 25.6186 136.972 25.565 136.972C25.4885 136.972 24.6692 135.294 22.4183 130.496C22.135 129.883 21.3158 128.143 20.5961 126.626C17.6638 120.395 14.1649 112.977 13.5753 111.72L12.9475 110.379L9.81611 110.409C8.09345 110.425 6.67705 110.448 6.66173 110.455C6.65408 110.463 7.03689 111.314 7.51923 112.341C7.99392 113.367 9.41033 116.418 10.666 119.115C11.9216 121.813 13.2997 124.779 13.7285 125.706C14.1572 126.634 15.0913 128.634 15.7956 130.151C17.0206 132.795 19.0266 137.118 20.1214 139.463C20.4047 140.076 21.0785 141.524 21.6144 142.682C22.1503 143.839 22.625 144.835 22.671 144.889C22.7245 144.958 23.4136 144.981 25.6645 144.981H28.5816L29.286 143.425C29.6764 142.574 30.4267 140.927 30.955 139.769C31.491 138.612 32.0728 137.332 32.2566 136.934C32.4327 136.535 32.8002 135.738 33.0605 135.171C33.3208 134.604 33.7189 133.738 33.941 133.255C34.1553 132.772 34.9822 130.979 35.7555 129.27C36.5364 127.561 38.1519 124.043 39.3386 121.453C40.5253 118.862 41.9417 115.774 42.4777 114.594C43.0136 113.413 43.6644 111.988 43.9247 111.429C44.185 110.869 44.3917 110.379 44.3917 110.34C44.3917 110.294 43.2127 110.264 41.3292 110.264Z" fill="white"/>
</svg>
