<svg width="140" height="49" viewBox="0 0 140 49" fill="none" xmlns="http://www.w3.org/2000/svg">
<path d="M82.4082 0.587551C82.2158 1.22847 78.7074 11.4679 78.6704 11.5137C78.663 11.5213 78.5594 11.5061 78.4484 11.4679C78.3226 11.4221 78.0857 11.4221 77.8489 11.4679C77.3752 11.5519 77.1679 11.4832 76.7534 11.0941C76.3316 10.6973 75.9319 10.5447 75.1103 10.4608C74.3035 10.3692 73.9483 10.2471 72.7566 9.65199C71.8092 9.17893 71.1505 8.6372 71.2985 8.45408C71.3429 8.39304 71.3651 8.31674 71.3429 8.29385C71.3133 8.26333 71.3355 8.13362 71.3947 7.99628C71.4465 7.85894 71.4836 7.69108 71.4762 7.62241C71.4613 7.54611 71.5206 7.47744 71.6316 7.44692C71.7574 7.4164 71.8462 7.30195 71.9424 7.05779C72.0979 6.63814 72.0165 6.48554 71.639 6.48554C71.4391 6.48554 71.3725 6.43976 71.2837 6.26427C71.1949 6.08878 71.0469 6.00485 70.5214 5.8141C69.722 5.52416 68.8634 5.11977 69.041 5.11214C69.3149 5.10451 69.1447 4.9748 68.6636 4.81457C68.3897 4.73064 68.1307 4.65434 68.0863 4.65434C68.0492 4.65434 67.5311 4.45596 66.9464 4.2118C66.2359 3.92186 65.851 3.71585 65.8066 3.62429C65.7696 3.54036 65.5697 3.38013 65.3625 3.27331C65.1552 3.16649 64.7852 2.96811 64.5409 2.83077C63.7267 2.38823 61.6765 2.10592 59.2118 2.11355C57.6501 2.11355 57.3688 2.13644 56.8655 2.27378C55.8293 2.56372 55.4962 2.80788 54.3564 4.09735C54.164 4.31099 53.7495 4.68486 53.4312 4.93665C52.6171 5.57757 52.21 6.05826 51.9065 6.72207C51.3588 7.91235 51.1219 8.83558 51.0035 10.3005C50.8999 11.5061 50.8629 11.8036 50.7741 12.0249C50.7223 12.1546 50.626 12.5132 50.5594 12.8261C50.2782 14.0774 49.8711 14.5657 48.5314 15.2371C48.0725 15.466 47.5396 15.7789 47.3472 15.9315C47.0585 16.1604 46.8661 16.2367 46.1851 16.3816C44.0239 16.8394 43.5058 17.1141 40.2639 19.4871C39.8642 19.777 39.3091 20.1127 39.013 20.2348C38.3617 20.5095 37.9842 20.8757 37.7104 21.4937C37.5919 21.7608 37.4883 21.9744 37.4735 21.9744C37.4587 21.9821 36.9924 22.0126 36.4299 22.0431C35.6823 22.0965 35.3641 22.1423 35.2235 22.2415C35.1198 22.3102 35.0606 22.4017 35.0902 22.4322C35.1272 22.4704 35.4233 22.6459 35.749 22.8214C36.5335 23.241 36.5409 23.241 36.5113 23.6073L36.4891 23.9125L35.4011 24.4008C34.7942 24.6755 34.3057 24.9196 34.3057 24.9501C34.3057 24.9807 34.4981 25.0798 34.735 25.1714C35.0976 25.3164 35.3049 25.3393 36.0376 25.324C36.5113 25.3164 36.911 25.324 36.9258 25.3393C36.9332 25.3545 37.096 25.5911 37.2811 25.8657C37.9176 26.8042 38.2581 27.1247 38.8502 27.3841C39.1537 27.5138 39.4497 27.6206 39.5015 27.6206C39.6718 27.6283 39.9678 27.9487 40.4859 28.6965C41.0189 29.4595 41.4629 30.0317 41.9885 30.6116C42.4399 31.0999 43.3133 31.4738 43.8832 31.4127C44.3495 31.367 44.9639 31.0618 45.1785 30.7795C45.5634 30.2759 45.4894 29.6044 44.9861 29.0856C44.6974 28.7804 44.6604 28.5668 44.5494 25.942C44.5198 25.3316 44.4902 24.767 44.4902 24.6831C44.4828 24.5915 44.5568 24.5 44.6678 24.4466C44.9861 24.2863 46.7328 24.1719 48.1243 24.2024C49.3752 24.2329 49.4714 24.2482 50.0413 24.4694C50.6704 24.7136 51.4994 25.179 52.0767 25.6063C52.7577 26.1175 53.0389 26.2015 54.1048 26.2015C54.9781 26.2091 55.1262 26.1862 55.7183 25.9878L56.3696 25.7589L57.3466 26.0107C58.22 26.232 58.4569 26.2549 59.6189 26.2778C60.3294 26.293 61.0326 26.3312 61.1732 26.3617C61.8912 26.5067 62.4167 26.6669 63.4307 27.0484C64.045 27.2773 64.7408 27.5062 64.985 27.552C65.777 27.6969 66.4431 27.9335 67.5237 28.4676C69.2853 29.3298 69.6998 29.6731 70.1883 30.6803C70.2845 30.871 70.588 31.3441 70.8692 31.7332C71.1505 32.1223 71.4021 32.4657 71.4243 32.5038C71.4539 32.5572 66.4061 47.3823 65.9916 48.4353L65.8362 48.832H70.0477H74.2517L74.3405 48.5039C74.4294 48.1835 82.571 24.706 82.6081 24.6526C82.6155 24.6449 83.289 25.1409 84.0958 25.7589C84.9025 26.3846 85.8129 27.0255 86.1238 27.1857C86.5087 27.3841 86.7233 27.552 86.8195 27.7198C86.8935 27.8572 87.0342 28.0555 87.123 28.1776C87.2488 28.3302 87.2784 28.4447 87.2562 28.6354C87.2192 28.8414 87.2784 28.9711 87.6633 29.5205C88.1592 30.2225 88.3368 30.6803 88.211 30.8863C88.174 30.9626 88.0112 31.0618 87.8483 31.1152C87.4857 31.2449 87.4783 31.2449 87.6263 31.4662C87.8187 31.7714 87.7817 31.84 87.4413 31.779L87.1378 31.7256L87.1896 31.9774C87.2192 32.1223 87.308 32.3436 87.382 32.4809C87.5153 32.7022 87.6411 32.8319 88.1962 33.305L88.3738 33.4576L87.8261 33.511C87.5227 33.5415 87.271 33.5797 87.2562 33.5949C87.2488 33.6026 87.382 33.8467 87.5671 34.1367C87.9964 34.8234 88.0112 35.037 87.6115 34.7089C87.5005 34.625 87.4042 34.5868 87.3894 34.6326C87.345 34.7699 87.7595 35.5635 88.1296 36.0365C88.3738 36.3494 88.4849 36.563 88.4627 36.6622C88.4405 36.7461 88.3738 37.0132 88.3072 37.265C88.2332 37.5625 88.2184 37.7533 88.2628 37.8448C88.3442 37.9974 88.8475 38.2263 89.114 38.2263C89.3582 38.2263 89.3953 38.3179 89.3805 38.913C89.3657 39.6074 89.4545 39.7829 89.9208 39.966C90.2242 40.0881 90.2982 40.1491 90.3056 40.2941C90.313 40.6069 90.3279 40.6527 90.5277 40.8892L90.7201 41.1257H90.5425C89.9208 41.1257 87.7373 39.9965 86.4494 39.0275C85.8869 38.6002 85.9091 38.7223 86.5235 39.3785C88.5515 41.5454 89.1732 42.0337 90.4759 42.4686C90.957 42.6365 91.29 42.7814 91.2752 42.8349C91.2382 42.9569 90.5203 42.9798 90.0022 42.8806C89.188 42.7204 88.6847 42.3923 87.6781 41.3928C86.9083 40.6298 86.7677 40.5153 86.8121 40.6985C86.9824 41.4309 87.8853 42.4457 88.8179 42.9646C89.3657 43.2698 90.4537 43.5902 91.0606 43.6284C92.3189 43.697 94.0064 43.1324 94.8058 42.3694C95.1462 42.049 95.8272 41.08 96.0714 40.5916C96.2861 40.1491 96.745 38.8062 96.8042 38.44C96.8782 37.9974 96.7154 36.9063 96.4785 36.2273C96.2047 35.449 95.7458 34.5868 94.9242 33.2745C94.5689 32.7022 94.2433 32.1071 94.1988 31.9468C94.0952 31.5501 94.2211 31.0694 94.6355 30.3293C95.1981 29.2992 95.7532 28.7804 96.4119 28.6507C96.7524 28.582 98.2993 28.8109 100.35 29.2306C101.452 29.4518 102.474 29.3755 103.125 29.0169C103.318 28.9101 103.71 28.5896 104.006 28.2921C104.657 27.6512 104.827 27.6283 104.953 28.1547C105.094 28.727 105.249 28.9559 105.545 29.0474C105.812 29.1314 105.819 29.1314 105.967 28.872C106.078 28.6736 106.167 28.6125 106.323 28.6125C106.641 28.6125 106.656 28.4905 106.36 28.2616C105.908 27.9106 106.064 27.7275 106.744 27.819C106.959 27.8419 107.137 27.8495 107.137 27.819C107.137 27.7961 106.9 27.6512 106.619 27.5062C106.33 27.3536 106.115 27.201 106.138 27.1705C106.16 27.1323 106.345 27.0636 106.552 27.0102C106.974 26.9034 106.959 26.8576 106.448 26.6669C106.256 26.5906 106.078 26.499 106.056 26.4609C106.034 26.4227 106.182 26.3235 106.389 26.232C106.596 26.148 106.767 26.0489 106.767 26.0183C106.767 25.9878 106.626 25.9191 106.456 25.8657C106.278 25.8123 106.086 25.7589 106.026 25.736C105.945 25.7131 105.967 25.6597 106.13 25.5224L106.345 25.3393L106.093 25.2782C105.93 25.2324 105.834 25.1561 105.812 25.057C105.775 24.8281 105.605 24.6755 105.198 24.4923C104.901 24.3626 104.783 24.3474 104.613 24.4084C104.413 24.4771 104.391 24.4694 104.206 24.1414C104.102 23.9582 103.984 23.8056 103.954 23.8056C103.895 23.8056 103.791 24.0956 103.702 24.5076C103.636 24.8204 103.54 24.7746 103.325 24.3321C103.184 24.0574 103.058 23.9201 102.881 23.8362C102.496 23.6683 102.422 23.6988 102.126 24.1185L101.859 24.5076L101.63 24.2558C101.497 24.1108 101.016 23.5462 100.557 23.0045C98.2771 20.3264 98.3363 20.3798 96.8856 19.838C95.9604 19.4947 95.7458 19.4413 95.4645 19.4871C95.087 19.5405 94.4061 19.8151 92.8888 20.54C92.3189 20.8147 91.6231 21.1275 91.3345 21.242C90.4093 21.6082 89.9356 21.8676 89.2694 22.3941C88.6255 22.8977 87.9001 23.3173 87.3376 23.5004C86.7973 23.6759 86.4865 23.8819 86.294 24.1871C86.183 24.355 86.0572 24.4923 86.0128 24.4923C85.7685 24.4923 83.9181 23.3402 83.5036 22.9282C83.3852 22.8061 83.3038 22.6688 83.326 22.5925C83.4 22.3102 90.5943 1.65575 90.8312 1.03009C90.9792 0.64859 91.1494 0.26709 91.2086 0.1679L91.3123 4.19617e-05H86.9528H82.5933L82.4082 0.587551ZM66.7614 9.35442C67.4645 9.43072 68.3527 9.69014 68.8486 9.95719C69.2039 10.1403 69.4851 10.2319 69.796 10.2548C70.0403 10.2776 70.4917 10.3158 70.7952 10.3387C71.0987 10.3692 71.5724 10.4379 71.8462 10.4913C72.9046 10.7202 74.9105 11.4908 75.2361 11.7884C75.2953 11.8418 75.5692 11.9791 75.8357 12.0936C76.1687 12.2309 76.5388 12.4751 76.9459 12.8337C77.2864 13.1313 77.649 13.4365 77.7526 13.5204L77.9377 13.6654L77.686 14.4055C77.1309 16.0383 77.1679 15.962 76.9903 15.8323C76.9015 15.7712 76.7238 15.7178 76.5832 15.7178C76.2205 15.7178 75.8505 15.5271 75.732 15.2829C75.6728 15.1685 75.5766 14.8556 75.5322 14.5962C75.4434 14.1384 75.4286 14.1155 75.1103 13.9629C74.9327 13.879 74.496 13.7035 74.1407 13.5891C73.7854 13.467 73.3487 13.2839 73.1637 13.177C72.9787 13.0702 72.468 12.8108 72.0165 12.5972C71.5724 12.3912 70.8692 12.0249 70.4621 11.796C70.0551 11.5595 69.3445 11.2161 68.8708 11.0178C68.1307 10.7126 67.9752 10.6744 67.6496 10.7126C67.4497 10.7354 66.8798 10.7812 66.3913 10.8041C65.2959 10.8652 64.6223 10.7583 63.9192 10.415C63.3937 10.1556 62.772 9.59858 62.8238 9.43835C62.8386 9.38494 63.0162 9.3239 63.216 9.29338C63.6009 9.23997 66.1322 9.28575 66.7614 9.35442ZM70.0551 13.5433C70.6916 13.6654 71.2023 13.879 72.9935 14.7641C74.1259 15.3211 74.496 15.6415 74.9771 16.4579C75.1621 16.7631 75.3101 17.0378 75.3101 17.0607C75.3101 17.137 75.7838 17.8161 76.0281 18.0831C76.1613 18.2281 76.2723 18.3807 76.2723 18.4265C76.2723 18.4646 75.732 20.0898 75.0733 22.0202L73.8668 25.5453L73.2969 25.5987C72.6456 25.6521 72.3939 25.5605 72.1201 25.1714C71.898 24.8509 71.3651 24.6068 70.4251 24.416C69.5518 24.2329 68.5007 23.9277 68.1677 23.7522C68.0492 23.6836 67.8124 23.5233 67.6496 23.386C67.4645 23.2334 67.1092 23.0655 66.6874 22.9282C65.925 22.6917 63.0976 21.5624 62.7645 21.364C62.6461 21.2877 62.1798 21.0741 61.7283 20.8757C60.6995 20.4332 60.4331 20.2653 60.4331 20.0669C60.4331 19.983 60.5959 19.4718 60.7957 18.9377C61.5581 16.8929 61.7209 16.2748 61.906 14.7259C61.9504 14.3673 61.9726 13.9935 61.9652 13.8943C61.943 13.6272 62.1428 13.5967 63.971 13.5814C64.9998 13.5738 65.7622 13.528 66.0952 13.467C66.7836 13.322 69.1743 13.3754 70.0551 13.5433ZM61.4323 23.2334C62.9496 23.5844 63.8822 23.8667 64.7038 24.2329C65.7474 24.6907 66.1767 24.7975 66.9686 24.7975C67.953 24.7975 69.3001 25.2248 70.3215 25.8657C70.588 26.0412 71.0173 26.2778 71.2763 26.4075C71.6686 26.5982 71.8092 26.7203 72.0757 27.1094C72.2607 27.3688 72.5272 27.7046 72.6752 27.8419C72.8232 27.9869 72.9417 28.1395 72.9417 28.17C72.9417 28.2081 72.8232 28.5896 72.6752 29.0322L72.4087 29.8257L72.1127 29.6273C71.9424 29.5052 71.6538 29.3984 71.4095 29.3679C70.9136 29.2992 70.6546 29.078 70.3511 28.4599C70.0847 27.9182 70.0181 27.8801 66.1693 26.2778C64.5039 25.5834 62.8682 24.8815 62.5425 24.7289C62.2168 24.5686 61.4989 24.2253 60.9438 23.9659C59.8483 23.447 59.4857 23.2029 59.5819 23.0426C59.6633 22.9053 60.3294 22.974 61.4323 23.2334ZM83.6369 23.9048C83.9255 24.1261 84.4806 24.5381 84.8803 24.8281C85.2726 25.1104 85.5983 25.3774 85.5983 25.4232C85.5983 25.7208 84.3696 25.0646 83.3482 24.2253C82.9411 23.8896 82.8893 23.8133 82.9411 23.6683C82.9781 23.5767 83.0299 23.5004 83.0595 23.5004C83.0892 23.5004 83.3556 23.6836 83.6369 23.9048Z" fill="#7BD6D1"/>
<path d="M16.8385 13.3982L0 21.3487L0 24.271L0 27.1856L16.7645 35.22L33.5289 43.2544L33.5807 41.2172C33.6177 40.0956 33.6325 38.6688 33.6177 38.0431L33.6029 36.8986L20.7095 30.642C13.6114 27.1932 7.80861 24.3549 7.80861 24.332C7.80861 24.3091 13.5966 21.486 20.6651 18.0601C27.7409 14.6266 33.5733 11.7959 33.6251 11.7654C33.6918 11.712 33.714 11.0253 33.6992 8.57606L33.677 5.45539L16.8385 13.3982Z" fill="#7BD6D1"/>
<path d="M106.471 8.62314V11.6751L106.641 11.782C106.73 11.843 110.468 13.6666 114.945 15.8411C119.423 18.008 125.152 20.7854 127.676 22.0062C130.2 23.2346 132.265 24.2799 132.265 24.3333C132.265 24.4096 130.644 25.226 126.011 27.4692C125.419 27.7515 123.738 28.5679 122.273 29.2852C116.256 32.2075 109.091 35.6944 107.877 36.2819L106.582 36.9075L106.611 40.0282C106.626 41.745 106.648 43.1565 106.656 43.1718C106.663 43.1794 107.485 42.7979 108.477 42.3172C109.468 41.8441 112.414 40.4326 115.019 39.1813C117.625 37.93 120.489 36.5566 121.385 36.1293C122.28 35.702 124.212 34.7711 125.678 34.0692C128.231 32.8484 132.406 30.8493 134.671 29.7582C135.263 29.4759 136.662 28.8045 137.779 28.2704C138.897 27.7363 139.859 27.2632 139.911 27.2174C139.977 27.164 140 26.4773 140 24.2341V21.3271L138.497 20.6251C137.676 20.236 136.084 19.4883 134.967 18.9618C133.849 18.4277 132.613 17.8478 132.228 17.6647C131.843 17.4892 131.073 17.123 130.526 16.8635C129.978 16.6041 129.142 16.2074 128.675 15.9861C128.209 15.7724 126.477 14.9484 124.826 14.1778C123.176 13.3995 119.779 11.7896 117.277 10.6069C114.775 9.42429 111.792 8.01274 110.653 7.47864C109.513 6.94454 108.136 6.29599 107.596 6.03657C107.055 5.77715 106.582 5.57114 106.545 5.57114C106.5 5.57114 106.471 6.74616 106.471 8.62314Z" fill="#7BD6D1"/>
</svg>
