<svg width="145" height="49" viewBox="0 0 145 49" fill="none" xmlns="http://www.w3.org/2000/svg">
<path d="M85.3293 0.589527C85.1301 1.23265 81.4974 11.5073 81.4591 11.5533C81.4514 11.5609 81.3441 11.5456 81.2292 11.5073C81.0989 11.4614 80.8536 11.4614 80.6084 11.5073C80.1179 11.5916 79.9033 11.5227 79.4741 11.1322C79.0373 10.7341 78.6235 10.5809 77.7728 10.4967C76.9374 10.4048 76.5695 10.2823 75.3357 9.68515C74.3547 9.21046 73.6726 8.66687 73.8259 8.48312C73.8719 8.42187 73.8949 8.34531 73.8719 8.32234C73.8412 8.29171 73.8642 8.16156 73.9255 8.02375C73.9792 7.88593 74.0175 7.71749 74.0098 7.64859C73.9945 7.57203 74.0558 7.50312 74.1708 7.4725C74.301 7.44187 74.393 7.32703 74.4926 7.08203C74.6536 6.66093 74.5693 6.50781 74.1784 6.50781C73.9715 6.50781 73.9025 6.46187 73.8106 6.28578C73.7186 6.10968 73.5653 6.02547 73.0212 5.83406C72.1935 5.54312 71.3045 5.13734 71.4884 5.12968C71.772 5.12203 71.5957 4.99187 71.0976 4.83109C70.814 4.74687 70.5458 4.67031 70.4998 4.67031C70.4615 4.67031 69.925 4.47124 69.3195 4.22625C68.5838 3.93531 68.1853 3.72859 68.1393 3.63671C68.101 3.5525 67.8941 3.39172 67.6795 3.28453C67.4649 3.17734 67.0817 2.97828 66.8288 2.84047C65.9858 2.3964 63.8629 2.11312 61.3108 2.12078C59.6937 2.12078 59.4025 2.14375 58.8814 2.28156C57.8084 2.57249 57.4636 2.8175 56.2833 4.1114C56.0841 4.32578 55.6549 4.70094 55.3254 4.95359C54.4823 5.59671 54.0608 6.07906 53.7466 6.74515C53.1795 7.93953 52.9342 8.86593 52.8116 10.3359C52.7043 11.5456 52.666 11.8442 52.574 12.0662C52.5204 12.1964 52.4208 12.5562 52.3518 12.8702C52.0606 14.1258 51.639 14.6158 50.2519 15.2895C49.7767 15.5192 49.2249 15.8331 49.0257 15.9862C48.7268 16.2159 48.5275 16.2925 47.8224 16.438C45.5846 16.8973 45.0481 17.173 41.6914 19.5541C41.2775 19.845 40.7027 20.1819 40.3962 20.3044C39.7218 20.58 39.3309 20.9475 39.0473 21.5677C38.9247 21.8356 38.8174 22.05 38.8021 22.05C38.7868 22.0577 38.3039 22.0883 37.7215 22.1189C36.9474 22.1725 36.6179 22.2184 36.4723 22.318C36.365 22.3869 36.3037 22.4787 36.3343 22.5094C36.3727 22.5477 36.6792 22.7237 37.0164 22.8998C37.8288 23.3209 37.8365 23.3209 37.8058 23.6884L37.7828 23.9947L36.6562 24.4847C36.0278 24.7603 35.522 25.0053 35.522 25.0359C35.522 25.0666 35.7212 25.1661 35.9665 25.258C36.342 25.4034 36.5566 25.4264 37.3153 25.4111C37.8058 25.4034 38.2196 25.4111 38.235 25.4264C38.2426 25.4417 38.4112 25.6791 38.6028 25.9547C39.2619 26.8964 39.6145 27.218 40.2276 27.4783C40.5418 27.6084 40.8483 27.7156 40.902 27.7156C41.0783 27.7233 41.3848 28.0448 41.9213 28.7952C42.4731 29.5608 42.9329 30.135 43.477 30.7169C43.9445 31.2069 44.8489 31.582 45.439 31.5208C45.9218 31.4748 46.5579 31.1686 46.7802 30.8853C47.1787 30.38 47.102 29.7062 46.5809 29.1856C46.282 28.8794 46.2437 28.665 46.1287 26.0312C46.0981 25.4187 46.0674 24.8522 46.0674 24.768C46.0598 24.6761 46.1364 24.5842 46.2514 24.5306C46.5809 24.3698 48.3896 24.255 49.8304 24.2856C51.1256 24.3162 51.2252 24.3316 51.8153 24.5536C52.4667 24.7986 53.3251 25.2656 53.9229 25.6944C54.6279 26.2073 54.9192 26.2916 56.0228 26.2916C56.9271 26.2992 57.0804 26.2762 57.6935 26.0772L58.3679 25.8475L59.3795 26.1002C60.2839 26.3222 60.5291 26.3452 61.7323 26.3681C62.4681 26.3834 63.1961 26.4217 63.3417 26.4523C64.0851 26.5978 64.6293 26.7586 65.6792 27.1414C66.3153 27.3711 67.0357 27.6008 67.2886 27.6467C68.1087 27.7922 68.7984 28.0295 69.9173 28.5655C71.7413 29.4306 72.1705 29.7752 72.6763 30.7858C72.7759 30.9772 73.0902 31.4519 73.3814 31.8423C73.6726 32.2328 73.9332 32.5773 73.9562 32.6156C73.9868 32.6692 68.7601 47.5453 68.3309 48.6019L68.17 49H72.5307H76.8838L76.9757 48.6708C77.0677 48.3492 85.4979 24.7909 85.5362 24.7373C85.5439 24.7297 86.2413 25.2273 87.0767 25.8475C87.912 26.4753 88.8547 27.1184 89.1766 27.2792C89.5751 27.4783 89.7973 27.6467 89.897 27.8152C89.9736 27.953 90.1192 28.152 90.2112 28.2745C90.3415 28.4277 90.3721 28.5425 90.3491 28.7339C90.3108 28.9406 90.3721 29.0708 90.7707 29.622C91.2841 30.3264 91.4681 30.7858 91.3378 30.9925C91.2995 31.0691 91.1309 31.1686 90.9622 31.2222C90.5867 31.3523 90.5791 31.3523 90.7323 31.5744C90.9316 31.8806 90.8933 31.9495 90.5407 31.8883L90.2265 31.8347L90.2802 32.0873C90.3108 32.2328 90.4028 32.4548 90.4794 32.5927C90.6174 32.8147 90.7477 32.9448 91.3224 33.4195L91.5064 33.5727L90.9393 33.6262C90.625 33.6569 90.3645 33.6952 90.3491 33.7105C90.3415 33.7181 90.4794 33.9631 90.671 34.2541C91.1155 34.9431 91.1309 35.1575 90.717 34.8283C90.602 34.7441 90.5024 34.7058 90.4871 34.7517C90.4411 34.8895 90.8703 35.6858 91.2535 36.1605C91.5064 36.4744 91.6213 36.6887 91.5983 36.7883C91.5754 36.8725 91.5064 37.1405 91.4374 37.3931C91.3608 37.6917 91.3454 37.8831 91.3914 37.975C91.4757 38.1281 91.9969 38.3578 92.2728 38.3578C92.5257 38.3578 92.564 38.4497 92.5487 39.0469C92.5333 39.7436 92.6253 39.9197 93.1081 40.1034C93.4223 40.2259 93.499 40.2872 93.5066 40.4327C93.5143 40.7466 93.5296 40.7925 93.7366 41.0298L93.9358 41.2672H93.7519C93.1081 41.2672 90.8473 40.1341 89.5138 39.1617C88.9313 38.733 88.9543 38.8555 89.5904 39.5139C91.6903 41.6883 92.3341 42.1783 93.6829 42.6147C94.1811 42.7831 94.5259 42.9286 94.5106 42.9822C94.4723 43.1047 93.7289 43.1277 93.1924 43.0281C92.3494 42.8673 91.8283 42.5381 90.786 41.5352C89.9889 40.7695 89.8433 40.6547 89.8893 40.8384C90.0656 41.5734 91.0006 42.5917 91.9662 43.1123C92.5333 43.4186 93.6599 43.7402 94.2884 43.7784C95.5912 43.8473 97.3386 43.2808 98.1663 42.5152C98.5188 42.1936 99.2239 41.2212 99.4768 40.7312C99.699 40.2872 100.174 38.9397 100.236 38.5722C100.312 38.1281 100.144 37.0333 99.8983 36.3519C99.6147 35.5709 99.1396 34.7058 98.2889 33.3889C97.921 32.8147 97.5838 32.2175 97.5378 32.0567C97.4305 31.6586 97.5608 31.1762 97.99 30.4336C98.5724 29.4 99.1472 28.8794 99.8293 28.7492C100.182 28.6803 101.784 28.91 103.906 29.3311C105.048 29.5531 106.106 29.4766 106.78 29.1167C106.98 29.0095 107.386 28.688 107.692 28.3894C108.367 27.7462 108.543 27.7233 108.673 28.2516C108.819 28.8258 108.98 29.0555 109.287 29.1473C109.562 29.2316 109.57 29.2316 109.723 28.9712C109.838 28.7722 109.93 28.7109 110.091 28.7109C110.421 28.7109 110.436 28.5884 110.13 28.3587C109.662 28.0066 109.823 27.8228 110.528 27.9147C110.75 27.9377 110.934 27.9453 110.934 27.9147C110.934 27.8917 110.689 27.7462 110.398 27.6008C110.099 27.4477 109.877 27.2945 109.9 27.2639C109.923 27.2256 110.114 27.1567 110.329 27.1031C110.766 26.9959 110.75 26.95 110.221 26.7586C110.022 26.682 109.838 26.5902 109.815 26.5519C109.792 26.5136 109.946 26.4141 110.16 26.3222C110.375 26.238 110.551 26.1384 110.551 26.1078C110.551 26.0772 110.405 26.0083 110.229 25.9547C110.045 25.9011 109.846 25.8475 109.785 25.8245C109.7 25.8016 109.723 25.748 109.892 25.6102L110.114 25.4264L109.854 25.3652C109.685 25.3192 109.585 25.2427 109.562 25.1431C109.524 24.9134 109.348 24.7603 108.926 24.5766C108.62 24.4464 108.497 24.4311 108.321 24.4923C108.114 24.5612 108.091 24.5536 107.899 24.2244C107.792 24.0406 107.669 23.8875 107.639 23.8875C107.577 23.8875 107.47 24.1784 107.378 24.5919C107.309 24.9058 107.21 24.8598 106.987 24.4158C106.842 24.1402 106.711 24.0023 106.528 23.9181C106.129 23.7497 106.052 23.7803 105.746 24.2014L105.47 24.5919L105.232 24.3392C105.094 24.1937 104.596 23.6272 104.121 23.0836C101.761 20.3962 101.822 20.4498 100.32 19.9062C99.3618 19.5617 99.1396 19.5081 98.8483 19.5541C98.4575 19.6077 97.7524 19.8833 96.1813 20.6106C95.5912 20.8862 94.8708 21.2002 94.5719 21.315C93.6139 21.6825 93.1235 21.9428 92.4337 22.4711C91.767 22.9764 91.0159 23.3975 90.4334 23.5812C89.874 23.7573 89.5521 23.9641 89.3528 24.2703C89.2379 24.4387 89.1076 24.5766 89.0616 24.5766C88.8087 24.5766 86.8927 23.4205 86.4636 23.007C86.3409 22.8845 86.2566 22.7467 86.2796 22.6702C86.3563 22.3869 93.8055 1.6614 94.0508 1.03359C94.2041 0.650776 94.3803 0.267963 94.4416 0.168434L94.5489 -3.8147e-06H90.0349H85.5209L85.3293 0.589527ZM69.1279 9.38656C69.856 9.46312 70.7757 9.72343 71.2892 9.9914C71.657 10.1752 71.9482 10.267 72.2701 10.29C72.523 10.313 72.9905 10.3512 73.3047 10.3742C73.619 10.4048 74.1094 10.4737 74.393 10.5273C75.4889 10.757 77.5658 11.5303 77.9031 11.8289C77.9644 11.8825 78.2479 12.0203 78.5238 12.1352C78.8687 12.273 79.2519 12.518 79.6734 12.8778C80.0259 13.1764 80.4015 13.4827 80.5088 13.5669L80.7004 13.7123L80.4398 14.455C79.865 16.0934 79.9033 16.0169 79.7194 15.8867C79.6274 15.8255 79.4435 15.7719 79.2979 15.7719C78.9223 15.7719 78.5392 15.5805 78.4165 15.3355C78.3552 15.2206 78.2556 14.9067 78.2096 14.6464C78.1176 14.187 78.1023 14.1641 77.7728 14.0109C77.5888 13.9267 77.1367 13.7506 76.7688 13.6358C76.4009 13.5133 75.9488 13.3295 75.7572 13.2223C75.5656 13.1152 75.0368 12.8548 74.5693 12.6405C74.1094 12.4337 73.3814 12.0662 72.9599 11.8366C72.5384 11.5992 71.8026 11.2547 71.3121 11.0556C70.5458 10.7494 70.3848 10.7111 70.0476 10.7494C69.8407 10.7723 69.2506 10.8183 68.7448 10.8412C67.6105 10.9025 66.9131 10.7953 66.185 10.4508C65.6409 10.1905 64.9971 9.63156 65.0508 9.47078C65.0661 9.41718 65.25 9.35593 65.457 9.32531C65.8555 9.27172 68.4765 9.31765 69.1279 9.38656ZM72.5384 13.5898C73.1974 13.7123 73.7263 13.9267 75.5809 14.8148C76.7535 15.3737 77.1367 15.6953 77.6348 16.5145C77.8264 16.8208 77.9797 17.0964 77.9797 17.1194C77.9797 17.1959 78.4702 17.8773 78.7231 18.1453C78.861 18.2908 78.976 18.4439 78.976 18.4898C78.976 18.5281 78.4165 20.1589 77.7344 22.0959L76.4852 25.6331L75.8951 25.6867C75.2207 25.7403 74.9601 25.6484 74.6766 25.258C74.4467 24.9364 73.8949 24.6914 72.9216 24.5C72.0172 24.3162 70.929 24.01 70.5841 23.8339C70.4615 23.765 70.2162 23.6042 70.0476 23.4664C69.856 23.3133 69.4881 23.1448 69.0513 23.007C68.2619 22.7697 65.3343 21.6366 64.9895 21.4375C64.8668 21.3609 64.384 21.1466 63.9165 20.9475C62.8513 20.5034 62.5754 20.335 62.5754 20.1359C62.5754 20.0517 62.744 19.5387 62.9509 19.0028C63.7403 16.9509 63.9089 16.3308 64.1005 14.7766C64.1464 14.4167 64.1694 14.0416 64.1618 13.942C64.1388 13.6741 64.3457 13.6434 66.2387 13.6281C67.3039 13.6205 68.0933 13.5745 68.4382 13.5133C69.1509 13.3678 71.6264 13.4214 72.5384 13.5898ZM63.61 23.3133C65.1811 23.6655 66.1467 23.9487 66.9974 24.3162C68.078 24.7756 68.5225 24.8828 69.3425 24.8828C70.3618 24.8828 71.7566 25.3116 72.8143 25.9547C73.0902 26.1308 73.5347 26.3681 73.8029 26.4983C74.2091 26.6897 74.3547 26.8122 74.6306 27.2027C74.8222 27.463 75.0981 27.7998 75.2514 27.9377C75.4046 28.0831 75.5273 28.2362 75.5273 28.2669C75.5273 28.3052 75.4046 28.688 75.2514 29.132L74.9755 29.9283L74.6689 29.7292C74.4926 29.6067 74.1937 29.4995 73.9408 29.4689C73.4274 29.4 73.1591 29.178 72.8449 28.5578C72.569 28.0142 72.5 27.9759 68.5148 26.3681C66.7905 25.6714 65.0968 24.967 64.7596 24.8139C64.4223 24.6531 63.6789 24.3086 63.1042 24.0483C61.9699 23.5277 61.5944 23.2827 61.694 23.1219C61.7783 22.9841 62.4681 23.053 63.61 23.3133ZM86.6015 23.987C86.9004 24.2091 87.4752 24.6225 87.889 24.9134C88.2952 25.1967 88.6324 25.4647 88.6324 25.5106C88.6324 25.8092 87.3602 25.1508 86.3026 24.3086C85.8811 23.9717 85.8275 23.8952 85.8811 23.7497C85.9194 23.6578 85.9731 23.5812 86.0037 23.5812C86.0344 23.5812 86.3103 23.765 86.6015 23.987Z" fill="white"/>
<path d="M17.4353 13.4444L0 21.4222V24.3545V27.2792L17.3586 35.3412L34.7172 43.4033L34.7709 41.359C34.8092 40.2336 34.8245 38.8019 34.8092 38.174L34.7939 37.0256L21.4434 30.7475C14.0938 27.2869 8.08536 24.4387 8.08536 24.4158C8.08536 24.3928 14.0785 21.56 21.3975 18.1223C28.7241 14.677 34.7632 11.8365 34.8169 11.8059C34.8858 11.7523 34.9088 11.0633 34.8935 8.60561L34.8705 5.4742L17.4353 13.4444Z" fill="white"/>
<path d="M110.245 8.65154V11.714L110.421 11.8212C110.513 11.8825 114.383 13.7123 119.02 15.8944C123.656 18.0687 129.588 20.8556 132.202 22.0806C134.815 23.3133 136.953 24.3622 136.953 24.4158C136.953 24.4923 135.275 25.3115 130.477 27.5625C129.864 27.8458 128.124 28.665 126.607 29.3847C120.376 32.317 112.958 35.8159 111.701 36.4054L110.36 37.0333L110.39 40.1647C110.406 41.8873 110.429 43.3037 110.436 43.319C110.444 43.3267 111.295 42.9439 112.322 42.4615C113.348 41.9869 116.399 40.5704 119.096 39.3148C121.794 38.0592 124.76 36.6811 125.687 36.2523C126.615 35.8236 128.615 34.8895 130.132 34.1851C132.776 32.9601 137.099 30.9542 139.444 29.8594C140.057 29.5761 141.505 28.9023 142.663 28.3664C143.82 27.8304 144.816 27.3558 144.87 27.3098C144.939 27.2562 144.962 26.5672 144.962 24.3162V21.3992L143.406 20.6948C142.555 20.3044 140.908 19.554 139.75 19.0258C138.593 18.4898 137.313 17.9079 136.915 17.7242C136.516 17.5481 135.719 17.1806 135.152 16.9203C134.585 16.66 133.719 16.2619 133.236 16.0398C132.753 15.8254 130.96 14.9986 129.251 14.2253C127.542 13.4444 124.024 11.8289 121.434 10.6422C118.843 9.45545 115.755 8.03904 114.575 7.5031C113.394 6.96716 111.969 6.31638 111.41 6.05607C110.85 5.79576 110.36 5.58904 110.321 5.58904C110.275 5.58904 110.245 6.7681 110.245 8.65154Z" fill="white"/>
</svg>
